<svg width="25" height="25" viewBox="0 0 25 25" fill="none" xmlns="http://www.w3.org/2000/svg">
<path d="M12.2451 0.298584C5.55563 0.298584 0.135712 5.71851 0.135712 12.408C0.135712 19.0974 5.55563 24.5173 12.2451 24.5173C18.9345 24.5173 24.3545 19.0974 24.3545 12.408C24.3545 5.71851 18.9345 0.298584 12.2451 0.298584ZM18.1826 15.5867C18.4121 15.8162 18.4121 16.1873 18.1826 16.4167L16.249 18.3455C16.0195 18.575 15.6484 18.575 15.4189 18.3455L12.2451 15.1423L9.06638 18.3455C8.83688 18.575 8.46579 18.575 8.2363 18.3455L6.30759 16.4119C6.07809 16.1824 6.07809 15.8113 6.30759 15.5818L9.51071 12.408L6.30759 9.22925C6.07809 8.99976 6.07809 8.62866 6.30759 8.39917L8.24118 6.46558C8.47067 6.23608 8.84177 6.23608 9.07126 6.46558L12.2451 9.67358L15.4238 6.47046C15.6533 6.24097 16.0244 6.24097 16.2539 6.47046L18.1875 8.40405C18.417 8.63354 18.417 9.00464 18.1875 9.23413L14.9795 12.408L18.1826 15.5867Z" fill="black"/>
</svg>
