<svg width="103" height="82" viewBox="0 0 103 82" fill="none" xmlns="http://www.w3.org/2000/svg">
<path d="M100.425 71.75H87.55V18.1696C87.55 13.8037 84.085 10.2499 79.825 10.2499H61.8V20.4999H77.25V82H100.425C101.848 82 103 80.8533 103 79.4375V74.3125C103 72.8967 101.848 71.75 100.425 71.75ZM50.2511 0.161602L19.3511 8.12779C17.0578 8.71877 15.45 10.8424 15.45 13.28V71.75H2.575C1.15231 71.75 0 72.8967 0 74.3125V79.4375C0 80.8533 1.15231 82 2.575 82H56.65V5.31384C56.65 1.85766 53.5021 -0.677618 50.2511 0.161602ZM42.4875 46.1249C40.3551 46.1249 38.625 43.8299 38.625 40.9999C38.625 38.17 40.3551 35.8749 42.4875 35.8749C44.6199 35.8749 46.35 38.17 46.35 40.9999C46.35 43.8299 44.6199 46.1249 42.4875 46.1249Z" fill="white"/>
</svg>
