<svg width="51" height="52" viewBox="0 0 51 52" fill="none" xmlns="http://www.w3.org/2000/svg">
<path d="M32.976 44.088C31.184 44.088 29.7547 43.64 28.688 42.744C27.6213 41.8053 26.7253 40.376 26 38.456C25.2747 36.536 24.528 34.104 23.76 31.16L11.792 42.36C11.2373 42.872 10.6827 43.2347 10.128 43.448C9.57331 43.6613 8.95465 43.768 8.27198 43.768C7.20531 43.768 6.43731 43.4267 5.96798 42.744C5.54131 42.0613 5.92531 41.1653 7.11998 40.056L22.48 25.784C21.968 23.6933 21.4987 21.944 21.072 20.536C20.688 19.128 20.304 18.0187 19.92 17.208C19.536 16.3547 19.1307 15.7573 18.704 15.416C18.32 15.032 17.872 14.84 17.36 14.84C16.592 14.84 15.9307 14.9893 15.376 15.288C14.864 15.544 14.4373 15.8 14.096 16.056C13.6267 16.312 13.136 16.312 12.624 16.056C12.112 15.8 11.728 15.416 11.472 14.904C11.1733 14.4347 11.024 13.9227 11.024 13.368C11.0667 12.8133 11.3227 12.344 11.792 11.96C12.2613 11.6187 13.072 11.1707 14.224 10.616C15.4187 10.0613 16.7413 9.784 18.192 9.784C19.344 9.784 20.3467 10.0613 21.2 10.616C22.096 11.128 22.864 11.9173 23.504 12.984C24.1867 14.008 24.784 15.2667 25.296 16.76C25.8507 18.2107 26.384 19.8747 26.896 21.752L38.032 11.384C38.6293 10.8293 39.1627 10.424 39.632 10.168C40.1013 9.912 40.6347 9.784 41.232 9.784C41.9573 9.784 42.576 9.9547 43.088 10.296C43.6 10.5947 43.8773 11.0213 43.92 11.576C43.9627 12.088 43.6213 12.664 42.896 13.304L28.176 27C28.7733 29.4747 29.2853 31.5227 29.712 33.144C30.1387 34.7227 30.5653 35.96 30.992 36.856C31.4187 37.752 31.888 38.3707 32.4 38.712C32.912 39.0533 33.552 39.224 34.32 39.224C34.96 39.224 35.6853 38.9253 36.496 38.328C37.3067 37.688 38.1813 36.8133 39.12 35.704C39.4613 35.32 39.8027 35.0853 40.144 35C40.4853 34.9147 40.8907 35.0427 41.36 35.384C42.0427 35.8107 42.448 36.2587 42.576 36.728C42.7467 37.1547 42.7253 37.56 42.512 37.944C42.128 38.584 41.4667 39.3947 40.528 40.376C39.632 41.3573 38.5227 42.232 37.2 43C35.92 43.7253 34.512 44.088 32.976 44.088Z" fill="black"/>
<path d="M26 50.5C38.9787 50.5 49.5 39.9787 49.5 27C49.5 14.0213 38.9787 3.5 26 3.5C13.0213 3.5 2.5 14.0213 2.5 27C2.5 39.9787 13.0213 50.5 26 50.5Z" stroke="black" stroke-width="3"/>
<path d="M33.912 46.156C32.008 46.156 30.4893 45.68 29.356 44.728C28.2227 43.7307 27.2707 42.212 26.5 40.172C25.7293 38.132 24.936 35.548 24.12 32.42L11.404 44.32C10.8147 44.864 10.2253 45.2493 9.63599 45.476C9.04666 45.7027 8.38932 45.816 7.66399 45.816C6.53066 45.816 5.71466 45.4533 5.21599 44.728C4.76266 44.0027 5.17066 43.0507 6.43999 41.872L22.76 26.708C22.216 24.4867 21.7173 22.628 21.264 21.132C20.856 19.636 20.448 18.4573 20.04 17.596C19.632 16.6893 19.2013 16.0547 18.748 15.692C18.34 15.284 17.864 15.08 17.32 15.08C16.504 15.08 15.8013 15.2387 15.212 15.556C14.668 15.828 14.2147 16.1 13.852 16.372C13.3533 16.644 12.832 16.644 12.288 16.372C11.744 16.1 11.336 15.692 11.064 15.148C10.7467 14.6493 10.588 14.1053 10.588 13.516C10.6333 12.9267 10.9053 12.428 11.404 12.02C11.9027 11.6573 12.764 11.1813 13.988 10.592C15.2573 10.0027 16.6627 9.70801 18.204 9.70801C19.428 9.70801 20.4933 10.0027 21.4 10.592C22.352 11.136 23.168 11.9747 23.848 13.108C24.5733 14.196 25.208 15.5333 25.752 17.12C26.3413 18.6613 26.908 20.4293 27.452 22.424L39.284 11.408C39.9187 10.8187 40.4853 10.388 40.984 10.116C41.4827 9.84401 42.0493 9.70801 42.684 9.70801C43.4547 9.70801 44.112 9.88931 44.656 10.252C45.2 10.5693 45.4947 11.0227 45.54 11.612C45.5853 12.156 45.2227 12.768 44.452 13.448L28.812 28C29.4467 30.6293 29.9907 32.8053 30.444 34.528C30.8973 36.2053 31.3507 37.52 31.804 38.472C32.2573 39.424 32.756 40.0813 33.3 40.444C33.844 40.8067 34.524 40.988 35.34 40.988C36.02 40.988 36.7907 40.6707 37.652 40.036C38.5133 39.356 39.4427 38.4267 40.44 37.248C40.8027 36.84 41.1653 36.5907 41.528 36.5C41.8907 36.4093 42.3213 36.5453 42.82 36.908C43.5453 37.3613 43.976 37.8373 44.112 38.336C44.2933 38.7893 44.2707 39.22 44.044 39.628C43.636 40.308 42.9333 41.1693 41.936 42.212C40.984 43.2547 39.8053 44.184 38.4 45C37.04 45.7707 35.544 46.156 33.912 46.156Z" fill="#FF9334"/>
<mask id="mask0_9_161" style="mask-type:luminance" maskUnits="userSpaceOnUse" x="0" y="4" width="51" height="48">
<path d="M51 4H0V52H51V4Z" fill="white"/>
<path d="M33.912 46.156C32.008 46.156 30.4893 45.68 29.356 44.728C28.2227 43.7307 27.2707 42.212 26.5 40.172C25.7293 38.132 24.936 35.548 24.12 32.42L11.404 44.32C10.8147 44.864 10.2253 45.2493 9.63599 45.476C9.04666 45.7027 8.38932 45.816 7.66399 45.816C6.53066 45.816 5.71466 45.4533 5.21599 44.728C4.76266 44.0027 5.17066 43.0507 6.43999 41.872L22.76 26.708C22.216 24.4867 21.7173 22.628 21.264 21.132C20.856 19.636 20.448 18.4573 20.04 17.596C19.632 16.6893 19.2013 16.0547 18.748 15.692C18.34 15.284 17.864 15.08 17.32 15.08C16.504 15.08 15.8013 15.2387 15.212 15.556C14.668 15.828 14.2147 16.1 13.852 16.372C13.3533 16.644 12.832 16.644 12.288 16.372C11.744 16.1 11.336 15.692 11.064 15.148C10.7467 14.6493 10.588 14.1053 10.588 13.516C10.6333 12.9267 10.9053 12.428 11.404 12.02C11.9027 11.6573 12.764 11.1813 13.988 10.592C15.2573 10.0027 16.6627 9.70801 18.204 9.70801C19.428 9.70801 20.4933 10.0027 21.4 10.592C22.352 11.136 23.168 11.9747 23.848 13.108C24.5733 14.196 25.208 15.5333 25.752 17.12C26.3413 18.6613 26.908 20.4293 27.452 22.424L39.284 11.408C39.9187 10.8187 40.4853 10.388 40.984 10.116C41.4827 9.84401 42.0493 9.70801 42.684 9.70801C43.4547 9.70801 44.112 9.88931 44.656 10.252C45.2 10.5693 45.4947 11.0227 45.54 11.612C45.5853 12.156 45.2227 12.768 44.452 13.448L28.812 28C29.4467 30.6293 29.9907 32.8053 30.444 34.528C30.8973 36.2053 31.3507 37.52 31.804 38.472C32.2573 39.424 32.756 40.0813 33.3 40.444C33.844 40.8067 34.524 40.988 35.34 40.988C36.02 40.988 36.7907 40.6707 37.652 40.036C38.5133 39.356 39.4427 38.4267 40.44 37.248C40.8027 36.84 41.1653 36.5907 41.528 36.5C41.8907 36.4093 42.3213 36.5453 42.82 36.908C43.5453 37.3613 43.976 37.8373 44.112 38.336C44.2933 38.7893 44.2707 39.22 44.044 39.628C43.636 40.308 42.9333 41.1693 41.936 42.212C40.984 43.2547 39.8053 44.184 38.4 45C37.04 45.7707 35.544 46.156 33.912 46.156Z" fill="black"/>
</mask>
<g mask="url(#mask0_9_161)">
<path d="M29.356 44.728L26.0529 48.482L26.096 48.52L26.14 48.557L29.356 44.728ZM24.12 32.42L28.9581 31.1579L26.8375 23.0289L20.7035 28.7693L24.12 32.42ZM11.404 44.32L14.7954 47.994L14.808 47.9824L14.8205 47.9707L11.404 44.32ZM5.216 44.728L0.976009 47.378L1.0339 47.4706L1.09579 47.5606L5.216 44.728ZM6.44 41.872L9.84226 45.536L9.84343 45.5349L6.44 41.872ZM22.76 26.708L26.1634 30.3709L28.3152 28.3716L27.6165 25.5187L22.76 26.708ZM21.264 21.132L16.4402 22.4476L16.4586 22.5151L16.4789 22.582L21.264 21.132ZM20.04 17.596L15.4804 19.6478L15.5004 19.6923L15.5213 19.7364L20.04 17.596ZM18.748 15.692L15.2125 19.2275L15.4083 19.4233L15.6245 19.5963L18.748 15.692ZM15.212 15.556L17.4481 20.0281L17.5158 19.9943L17.5825 19.9584L15.212 15.556ZM13.852 16.372L16.2463 20.7615L16.5632 20.5886L16.852 20.372L13.852 16.372ZM11.064 15.148L15.5361 12.9119L15.4208 12.6812L15.2823 12.4636L11.064 15.148ZM10.588 13.516L5.60273 13.1325L5.588 13.324V13.516H10.588ZM11.404 12.02L8.46314 7.97631L8.348 8.06011L8.23781 8.15021L11.404 12.02ZM13.988 10.592L11.8824 6.05701L11.8506 6.07171L11.8189 6.08701L13.988 10.592ZM21.4 10.592L18.6751 14.7842L18.795 14.8622L18.9193 14.9332L21.4 10.592ZM23.848 13.108L19.5605 15.6805L19.6218 15.7825L19.6878 15.8815L23.848 13.108ZM25.752 17.12L21.0223 18.7416L21.0506 18.8242L21.0817 18.9057L25.752 17.12ZM27.452 22.424L22.6282 23.7396L24.8047 31.7203L30.8591 26.0835L27.452 22.424ZM39.284 11.408L35.8817 7.74401L35.8769 7.74851L39.284 11.408ZM44.656 10.252L41.8825 14.4122L42.0072 14.4954L42.1366 14.5709L44.656 10.252ZM45.54 11.612L40.5547 11.9955L40.556 12.0114L40.5573 12.0272L45.54 11.612ZM44.452 13.448L41.1439 9.69881L41.0944 9.74251L41.0461 9.78741L44.452 13.448ZM28.812 28L25.4061 24.3394L23.2656 26.3311L23.9516 29.1732L28.812 28ZM30.444 34.528L25.6086 35.8005L25.6129 35.8165L25.6172 35.8325L30.444 34.528ZM37.652 40.036L40.618 44.0613L40.685 44.0119L40.7502 43.9604L37.652 40.036ZM40.44 37.248L36.7029 33.9262L36.6624 33.9718L36.6231 34.0183L40.44 37.248ZM42.82 36.908L39.8791 40.9517L40.0211 41.0549L40.17 41.148L42.82 36.908ZM44.112 38.336L39.2882 39.6516L39.3634 39.9275L39.4696 40.193L44.112 38.336ZM44.044 39.628L48.3315 42.2005L48.3743 42.129L48.4148 42.0562L44.044 39.628ZM41.936 42.212L38.3228 38.7559L38.2827 38.7978L38.2436 38.8407L41.936 42.212ZM38.4 45L40.8651 49.35L40.8879 49.337L40.9107 49.324L38.4 45ZM33.912 41.156C32.8408 41.156 32.5724 40.8998 32.572 40.8995L26.14 48.557C28.4063 50.46 31.1752 51.156 33.912 51.156V41.156ZM32.6591 40.9744C32.3514 40.7036 31.779 39.9975 31.1774 38.405L21.8226 41.939C22.7624 44.4265 24.094 46.7577 26.0529 48.482L32.6591 40.9744ZM31.1774 38.405C30.4911 36.5885 29.7485 34.1879 28.9581 31.1579L19.2819 33.6821C20.1235 36.9081 20.9676 39.6755 21.8226 41.939L31.1774 38.405ZM20.7035 28.7693L7.98754 40.6693L14.8205 47.9707L27.5365 36.0707L20.7035 28.7693ZM8.0126 40.646C7.89427 40.7552 7.81689 40.8105 7.78375 40.8322C7.75158 40.8532 7.77059 40.8364 7.8411 40.8093L11.4309 50.143C12.7461 49.637 13.8618 48.856 14.7954 47.994L8.0126 40.646ZM7.8411 40.8093C7.90307 40.7854 7.86581 40.816 7.664 40.816V50.816C8.91286 50.816 10.1903 50.62 11.4309 50.143L7.8411 40.8093ZM7.664 40.816C7.61524 40.816 7.85396 40.8066 8.23269 40.9749C8.65522 41.1627 9.05472 41.4859 9.33621 41.8954L1.09579 47.5606C2.79114 50.027 5.41242 50.816 7.664 50.816V40.816ZM9.45599 42.078C9.80532 42.6369 10.0168 43.3071 10.0357 44.0064C10.0536 44.668 9.89526 45.1654 9.77773 45.4396C9.58168 45.897 9.42016 45.9279 9.84226 45.536L3.03775 38.208C2.19051 38.9948 1.19032 40.091 0.586275 41.5004C-0.108161 43.1208 -0.307733 45.324 0.976009 47.378L9.45599 42.078ZM9.84343 45.5349L26.1634 30.3709L19.3566 23.0451L3.03657 38.2091L9.84343 45.5349ZM27.6165 25.5187C27.0599 23.2458 26.5375 21.2936 26.0491 19.682L16.4789 22.582C16.8972 23.9624 17.3721 25.7275 17.9035 27.8973L27.6165 25.5187ZM26.0878 19.8164C25.6441 18.1893 25.1456 16.6946 24.5587 15.4556L15.5213 19.7364C15.7504 20.2201 16.0679 21.0827 16.4402 22.4476L26.0878 19.8164ZM24.5996 15.5442C24.0677 14.3621 23.2376 12.8806 21.8715 11.7877L15.6245 19.5963C15.4857 19.4853 15.3934 19.3895 15.342 19.3315C15.2904 19.2733 15.2691 19.2409 15.2736 19.2475C15.2778 19.2536 15.3001 19.2875 15.3378 19.3567C15.3752 19.4255 15.4234 19.5211 15.4804 19.6478L24.5996 15.5442ZM22.2835 12.1565C21.001 10.8739 19.2768 10.08 17.32 10.08V20.08C16.9497 20.08 16.531 20.0068 16.1154 19.8287C15.7056 19.6531 15.407 19.422 15.2125 19.2275L22.2835 12.1565ZM17.32 10.08C15.8561 10.08 14.3026 10.3669 12.8415 11.1536L17.5825 19.9584C17.4484 20.0306 17.3401 20.0632 17.2823 20.0762C17.2282 20.0884 17.2345 20.08 17.32 20.08V10.08ZM12.9759 11.0839C12.2481 11.4478 11.5199 11.871 10.852 12.372L16.852 20.372C16.9094 20.329 17.0879 20.2082 17.4481 20.0281L12.9759 11.0839ZM11.4577 11.9825C11.8754 11.7547 12.4375 11.576 13.087 11.576C13.7221 11.576 14.2173 11.7465 14.5241 11.8999L10.0519 20.8441C11.9377 21.787 14.1949 21.8804 16.2463 20.7615L11.4577 11.9825ZM14.5241 11.8999C14.7066 11.9911 14.9134 12.1303 15.1095 12.3265C15.3057 12.5226 15.4449 12.7294 15.5361 12.9119L6.59187 17.3841C7.34769 18.8957 8.5403 20.0883 10.0519 20.8441L14.5241 11.8999ZM15.2823 12.4636C15.3663 12.5956 15.4485 12.7653 15.507 12.966C15.5656 13.1668 15.588 13.3559 15.588 13.516H5.588C5.588 15.0592 6.01944 16.534 6.84569 17.8324L15.2823 12.4636ZM15.5733 13.8995C15.544 14.2804 15.4318 14.6977 15.2155 15.0943C15.004 15.482 14.7533 15.7399 14.5702 15.8898L8.23781 8.15021C6.78771 9.33671 5.76284 11.0511 5.60273 13.1325L15.5733 13.8995ZM14.3449 16.0637C14.342 16.0658 14.3789 16.0391 14.4704 15.9826C14.5594 15.9277 14.6815 15.8561 14.8424 15.7672C15.1671 15.5878 15.6003 15.3651 16.1571 15.097L11.8189 6.08701C10.5671 6.68971 9.35371 7.32861 8.46314 7.97631L14.3449 16.0637ZM16.0936 15.127C16.6388 14.8739 17.3155 14.708 18.204 14.708V4.70801C16.0098 4.70801 13.8758 5.13151 11.8824 6.05701L16.0936 15.127ZM18.204 14.708C18.4133 14.708 18.5332 14.7329 18.5881 14.7481C18.6384 14.762 18.6604 14.7747 18.6751 14.7842L24.1249 6.39981C22.3036 5.21591 20.2639 4.70801 18.204 4.70801V14.708ZM18.9193 14.9332C18.9887 14.9728 19.231 15.1313 19.5605 15.6805L28.1355 10.5355C27.105 8.81801 25.7153 7.29911 23.8807 6.25081L18.9193 14.9332ZM19.6878 15.8815C20.1184 16.5274 20.5806 17.4534 21.0223 18.7416L30.4817 15.4984C29.8354 13.6132 29.0283 11.8646 28.0083 10.3345L19.6878 15.8815ZM21.0817 18.9057C21.5997 20.2602 22.1173 21.8663 22.6282 23.7396L32.2758 21.1084C31.6987 18.9924 31.083 17.0624 30.4223 15.3343L21.0817 18.9057ZM30.8591 26.0835L42.6911 15.0675L35.8769 7.74851L24.0449 18.7645L30.8591 26.0835ZM42.6863 15.072C42.908 14.8661 43.0822 14.7213 43.2104 14.6238C43.3415 14.5242 43.3962 14.4957 43.3783 14.5055L38.5897 5.72651C37.5888 6.27251 36.6796 7.00321 35.8817 7.74401L42.6863 15.072ZM43.3783 14.5055C43.2311 14.5858 43.0835 14.6399 42.9499 14.6719C42.8188 14.7034 42.7251 14.708 42.684 14.708V4.70801C41.3126 4.70801 39.9058 5.00871 38.5897 5.72651L43.3783 14.5055ZM42.684 14.708C42.6774 14.708 42.5818 14.7071 42.4254 14.664C42.2629 14.6191 42.0724 14.5388 41.8825 14.4122L47.4295 6.09181C45.9262 5.08951 44.2617 4.70801 42.684 4.70801V14.708ZM42.1366 14.5709C41.8453 14.4009 41.4359 14.0828 41.0928 13.5549C40.7423 13.0157 40.5901 12.4557 40.5547 11.9955L50.5253 11.2285C50.3446 8.87921 49.0278 7.01371 47.1754 5.93311L42.1366 14.5709ZM40.5573 12.0272C40.4709 10.9908 40.8121 10.2479 41.0005 9.93001C41.1753 9.63511 41.2958 9.56481 41.1439 9.69881L47.7601 17.1972C48.7358 16.3363 50.7791 14.2738 50.5227 11.1968L40.5573 12.0272ZM41.0461 9.78741L25.4061 24.3394L32.2179 31.6606L47.8579 17.1086L41.0461 9.78741ZM23.9516 29.1732C24.5906 31.8206 25.1434 34.0326 25.6086 35.8005L35.2794 33.2555C34.8379 31.5781 34.3027 29.438 33.6724 26.8268L23.9516 29.1732ZM25.6172 35.8325C26.1057 37.6399 26.6511 39.2806 27.2897 40.6217L36.3183 36.3223C36.0503 35.7594 35.689 34.7707 35.2708 33.2235L25.6172 35.8325ZM27.2897 40.6217C27.9167 41.9384 28.9034 43.5222 30.5265 44.6043L36.0735 36.2837C36.2238 36.384 36.3302 36.4772 36.397 36.5426C36.4634 36.6075 36.4965 36.6506 36.5015 36.6571C36.5065 36.6637 36.49 36.6427 36.4559 36.5851C36.422 36.5277 36.3753 36.442 36.3183 36.3223L27.2897 40.6217ZM30.5265 44.6043C32.0747 45.6364 33.7823 45.988 35.34 45.988V35.988C35.2657 35.988 35.6133 35.977 36.0735 36.2837L30.5265 44.6043ZM35.34 45.988C37.5428 45.988 39.3558 44.9913 40.618 44.0613L34.686 36.0107C34.4961 36.1507 34.4436 36.1598 34.5243 36.1266C34.6104 36.0911 34.8975 35.988 35.34 35.988V45.988ZM40.7502 43.9604C41.9555 43.0089 43.1236 41.8172 44.2569 40.4777L36.6231 34.0183C35.7618 35.0362 35.0712 35.7031 34.5538 36.1116L40.7502 43.9604ZM44.1771 40.5698C44.1637 40.5849 43.7081 41.1088 42.7407 41.3507L40.3153 31.6493C38.6225 32.0725 37.4417 33.0951 36.7029 33.9262L44.1771 40.5698ZM42.7407 41.3507C41.8551 41.5721 41.0989 41.454 40.6173 41.3019C40.1689 41.1603 39.918 40.98 39.8791 40.9517L45.7609 32.8643C44.8247 32.1835 42.8263 31.0215 40.3153 31.6493L42.7407 41.3507ZM40.17 41.148C40.2623 41.2057 40.1572 41.1562 39.9793 40.9596C39.7925 40.7531 39.4709 40.3214 39.2882 39.6516L48.9358 37.0204C48.3102 34.7264 46.607 33.3787 45.47 32.668L40.17 41.148ZM39.4696 40.193C39.3268 39.8359 39.2064 39.3346 39.2379 38.7362C39.2698 38.1306 39.448 37.6051 39.6732 37.1998L48.4148 42.0562C49.4099 40.265 49.4646 38.2547 48.7544 36.479L39.4696 40.193ZM39.7565 37.0555C39.6356 37.2571 39.2358 37.8014 38.3228 38.7559L45.5492 45.6681C46.6309 44.5373 47.6364 43.3589 48.3315 42.2005L39.7565 37.0555ZM38.2436 38.8407C37.682 39.4557 36.9196 40.0778 35.8893 40.6761L40.9107 49.324C42.691 48.29 44.286 47.0536 45.6284 45.5833L38.2436 38.8407ZM35.9349 40.6499C35.3604 40.9755 34.7195 41.156 33.912 41.156V51.156C36.3685 51.156 38.7196 50.566 40.8651 49.35L35.9349 40.6499Z" fill="white"/>
</g>
</svg>
