<svg width="100" height="104" viewBox="0 0 100 104" fill="none" xmlns="http://www.w3.org/2000/svg">
<path d="M98.7227 64.4967L89.7509 59.3387C90.6565 54.4742 90.6565 49.4839 89.7509 44.6194L98.7227 39.4613C99.7547 38.8742 100.218 37.6581 99.8811 36.5259C97.5433 29.0614 93.5629 22.3098 88.3609 16.6905C87.5606 15.8308 86.2549 15.6211 85.2439 16.2082L76.2721 21.3662C72.5023 18.1372 68.1638 15.6421 63.4673 14.0066V3.71147C63.4673 2.53728 62.646 1.50987 61.4876 1.25826C53.7584 -0.461092 45.8396 -0.377221 38.4895 1.25826C37.3312 1.50987 36.5098 2.53728 36.5098 3.71147V14.0276C31.8343 15.684 27.4959 18.1792 23.705 21.3872L14.7542 16.2292C13.7223 15.6421 12.4376 15.8308 11.6373 16.7114C6.43529 22.3098 2.45485 29.0614 0.117122 36.5468C-0.240908 37.6791 0.243485 38.8952 1.27545 39.4823L10.2473 44.6404C9.34165 49.5048 9.34165 54.4952 10.2473 59.3597L1.27545 64.5177C0.243485 65.1048 -0.219847 66.3209 0.117122 67.4532C2.45485 74.9177 6.43529 81.6692 11.6373 87.2886C12.4376 88.1482 13.7433 88.3579 14.7542 87.7708L23.726 82.6128C27.4959 85.8418 31.8343 88.337 36.5309 89.9724V100.289C36.5309 101.463 37.3522 102.49 38.5105 102.742C46.2398 104.461 54.1585 104.377 61.5087 102.742C62.667 102.49 63.4884 101.463 63.4884 100.289V89.9724C68.1638 88.316 72.5023 85.8208 76.2932 82.6128L85.265 87.7708C86.297 88.3579 87.5817 88.1692 88.382 87.2886C93.5839 81.6902 97.5644 74.9386 99.9021 67.4532C100.218 66.2999 99.7547 65.0838 98.7227 64.4967ZM49.9886 68.7532C40.7008 68.7532 33.1401 61.2258 33.1401 51.979C33.1401 42.7323 40.7008 35.2049 49.9886 35.2049C59.2763 35.2049 66.837 42.7323 66.837 51.979C66.837 61.2258 59.2763 68.7532 49.9886 68.7532Z" fill="white"/>
</svg>
