<svg width="107" height="109" viewBox="0 0 107 109" fill="none" xmlns="http://www.w3.org/2000/svg">
<g clip-path="url(#clip0_9_181)">
<path d="M69.1849 92.4152C65.4252 92.4152 62.4265 91.4762 60.1885 89.598C57.9505 87.6304 56.0707 84.6343 54.549 80.6097C53.0273 76.5851 51.4607 71.4873 49.8494 65.3162L24.74 88.7931C23.5763 89.8663 22.4127 90.6266 21.2489 91.0737C20.0852 91.5208 18.7872 91.7445 17.3549 91.7445C15.117 91.7445 13.5057 91.0291 12.5211 89.598C11.6259 88.167 12.4315 86.2888 14.938 83.9636L47.1639 54.0472C46.0897 49.6648 45.1051 45.998 44.2098 43.0466C43.4042 40.0953 42.5985 37.77 41.7929 36.0706C40.9873 34.282 40.1369 33.0297 39.2417 32.3143C38.436 31.5094 37.4961 31.1069 36.4219 31.1069C34.8106 31.1069 33.4232 31.4199 32.2594 32.046C31.1852 32.5826 30.29 33.1192 29.5739 33.6559C28.5893 34.1925 27.5598 34.1925 26.4856 33.6559C25.4114 33.1192 24.6058 32.3143 24.0687 31.2411C23.442 30.2574 23.1287 29.1841 23.1287 28.0214C23.2183 26.8587 23.7554 25.8749 24.74 25.07C25.7246 24.3546 27.4255 23.4155 29.8425 22.2528C32.349 21.0901 35.1239 20.5088 38.1675 20.5088C40.5844 20.5088 42.6881 21.0901 44.4784 22.2528C46.3582 23.326 47.9695 24.9805 49.3123 27.2165C50.7446 29.3629 51.9978 32.0014 53.072 35.1316C54.2357 38.1725 55.3546 41.6604 56.4288 45.5956L79.7926 23.8626C81.0458 22.6999 82.1648 21.8503 83.1495 21.3137C84.1341 20.7771 85.2532 20.5088 86.5063 20.5088C88.028 20.5088 89.3261 20.8666 90.4003 21.582C91.4745 22.2081 92.0563 23.1024 92.1458 24.2651C92.2354 25.3383 91.5192 26.5457 89.9975 27.8873L59.1143 56.5962C60.3675 61.7835 61.4417 66.0764 62.3369 69.4749C63.2321 72.7841 64.1272 75.3777 65.0224 77.2559C65.9176 79.134 66.9022 80.4309 67.9764 81.1463C69.0506 81.8617 70.3934 82.2196 72.0047 82.2196C73.3474 82.2196 74.8691 81.5934 76.57 80.3414C78.2709 78.9999 80.1058 77.1664 82.0753 74.8411C82.7913 74.0362 83.5076 73.5442 84.2236 73.3654C84.9397 73.1866 85.7903 73.4549 86.7749 74.1703C88.2072 75.0648 89.0575 76.0038 89.3261 76.9875C89.6842 77.882 89.6393 78.7316 89.1918 79.5365C88.3862 80.878 86.9987 82.5774 85.0293 84.6343C83.1495 86.6913 80.8221 88.5248 78.047 90.1346C75.3615 91.655 72.4075 92.4152 69.1849 92.4152Z" fill="black"/>
<path d="M54.549 105.856C81.7788 105.856 103.853 83.8015 103.853 56.5962C103.853 29.3908 81.7788 7.33655 54.549 7.33655C27.3192 7.33655 5.24509 29.3908 5.24509 56.5962C5.24509 83.8015 27.3192 105.856 54.549 105.856Z" stroke="black" stroke-width="5"/>
<path d="M71.1487 96.7501C67.154 96.7501 63.9677 95.7523 61.59 93.7568C59.2123 91.6663 57.215 88.4829 55.598 84.2067C53.9811 79.9306 52.3167 74.5141 50.6047 67.9573L23.926 92.9016C22.6897 94.0419 21.4531 94.8495 20.2167 95.3247C18.9803 95.7999 17.6011 96.0374 16.0794 96.0374C13.7016 96.0374 11.9896 95.2771 10.9434 93.7568C9.99226 92.2365 10.8483 90.2409 13.5114 87.7702L47.7514 55.9841C46.61 51.3279 45.5637 47.4318 44.6127 44.296C43.7567 41.1601 42.9007 38.6894 42.0447 36.884C41.1887 34.9834 40.2851 33.6532 39.334 32.8929C38.478 32.0376 37.4794 31.61 36.338 31.61C34.626 31.61 33.1517 31.9427 31.9154 32.6078C30.774 33.1779 29.823 33.7481 29.062 34.3183C28.0157 34.8884 26.922 34.8884 25.7807 34.3183C24.6394 33.7481 23.7834 32.8929 23.2127 31.7526C22.547 30.7072 22.214 29.5669 22.214 28.3316C22.3091 27.0964 22.8797 26.051 23.926 25.1958C24.9723 24.4355 26.7794 23.4377 29.3474 22.2025C32.0104 20.9672 34.959 20.3495 38.1927 20.3495C40.7607 20.3495 42.9957 20.9672 44.898 22.2025C46.8954 23.3428 48.6074 25.1008 50.034 27.4764C51.5557 29.757 52.8874 32.5602 54.0287 35.8862C55.2651 39.117 56.454 42.823 57.5954 47.0042L82.4194 23.913C83.751 22.6777 84.9397 21.7749 85.986 21.2047C87.0323 20.6346 88.2211 20.3495 89.5527 20.3495C91.1696 20.3495 92.5487 20.7295 93.69 21.4898C94.8314 22.1549 95.4497 23.1053 95.5447 24.3406C95.6397 25.4809 94.879 26.7637 93.262 28.1891L60.4487 58.6923C61.7803 64.2038 62.9217 68.765 63.8727 72.376C64.8237 75.8919 65.775 78.6477 66.726 80.6433C67.6771 82.6388 68.7234 84.0166 69.8647 84.7769C71.006 85.5371 72.4327 85.9172 74.1447 85.9172C75.5714 85.9172 77.1883 85.2521 78.9954 83.9216C80.8024 82.4963 82.7523 80.5483 84.8447 78.0776C85.6057 77.2223 86.3664 76.6998 87.1274 76.5096C87.8883 76.3195 88.7917 76.6046 89.838 77.3649C91.3597 78.3151 92.2634 79.3128 92.5487 80.3582C92.9291 81.3084 92.8817 82.2112 92.406 83.0664C91.55 84.4918 90.0757 86.2972 87.9834 88.4829C85.986 90.6685 83.5131 92.6165 80.5647 94.327C77.7114 95.9425 74.5727 96.7501 71.1487 96.7501Z" fill="#FF9334"/>
<mask id="mask0_9_181" style="mask-type:luminance" maskUnits="userSpaceOnUse" x="0" y="8" width="107" height="101">
<path d="M107 8.38464H0V109H107V8.38464Z" fill="white"/>
<path d="M71.1487 96.7501C67.154 96.7501 63.9677 95.7523 61.59 93.7568C59.2123 91.6663 57.215 88.4829 55.598 84.2067C53.9811 79.9306 52.3167 74.5141 50.6047 67.9573L23.926 92.9016C22.6897 94.0419 21.4531 94.8495 20.2167 95.3247C18.9803 95.7999 17.6011 96.0374 16.0794 96.0374C13.7016 96.0374 11.9896 95.2771 10.9434 93.7568C9.99226 92.2365 10.8483 90.2409 13.5114 87.7702L47.7514 55.9841C46.61 51.3279 45.5637 47.4318 44.6127 44.296C43.7567 41.1601 42.9007 38.6894 42.0447 36.884C41.1887 34.9834 40.2851 33.6532 39.334 32.8929C38.478 32.0376 37.4794 31.61 36.338 31.61C34.626 31.61 33.1517 31.9427 31.9154 32.6078C30.774 33.1779 29.823 33.7481 29.062 34.3183C28.0157 34.8884 26.922 34.8884 25.7807 34.3183C24.6394 33.7481 23.7834 32.8929 23.2127 31.7526C22.547 30.7072 22.214 29.5669 22.214 28.3316C22.3091 27.0964 22.8797 26.051 23.926 25.1958C24.9723 24.4355 26.7794 23.4377 29.3474 22.2025C32.0104 20.9672 34.959 20.3495 38.1927 20.3495C40.7607 20.3495 42.9957 20.9672 44.898 22.2025C46.8954 23.3428 48.6074 25.1008 50.034 27.4764C51.5557 29.757 52.8874 32.5602 54.0287 35.8862C55.2651 39.117 56.454 42.823 57.5954 47.0042L82.4194 23.913C83.751 22.6777 84.9397 21.7749 85.986 21.2047C87.0323 20.6346 88.2211 20.3495 89.5527 20.3495C91.1696 20.3495 92.5487 20.7295 93.69 21.4898C94.8314 22.1549 95.4497 23.1053 95.5447 24.3406C95.6397 25.4809 94.879 26.7637 93.262 28.1891L60.4487 58.6923C61.7803 64.2038 62.9217 68.765 63.8727 72.376C64.8237 75.8919 65.775 78.6477 66.726 80.6433C67.6771 82.6388 68.7234 84.0166 69.8647 84.7769C71.006 85.5371 72.4327 85.9172 74.1447 85.9172C75.5714 85.9172 77.1883 85.2521 78.9954 83.9216C80.8024 82.4963 82.7523 80.5483 84.8447 78.0776C85.6057 77.2223 86.3664 76.6998 87.1274 76.5096C87.8883 76.3195 88.7917 76.6046 89.838 77.3649C91.3597 78.3151 92.2634 79.3128 92.5487 80.3582C92.9291 81.3084 92.8817 82.2112 92.406 83.0664C91.55 84.4918 90.0757 86.2972 87.9834 88.4829C85.986 90.6685 83.5131 92.6165 80.5647 94.327C77.7114 95.9425 74.5727 96.7501 71.1487 96.7501Z" fill="black"/>
</mask>
<g mask="url(#mask0_9_181)">
<path d="M61.59 93.7568L54.66 101.626L54.7504 101.705L54.8428 101.783L61.59 93.7568ZM50.6047 67.9573L60.7552 65.3118L56.3061 48.2721L43.4368 60.3049L50.6047 67.9573ZM23.926 92.9016L31.0413 100.603L31.0678 100.579L31.094 100.554L23.926 92.9016ZM10.9434 93.7568L2.04771 99.3116L2.16917 99.5057L2.29902 99.6944L10.9434 93.7568ZM13.5114 87.7702L20.6495 95.4505L20.6519 95.4482L13.5114 87.7702ZM47.7514 55.9841L54.8918 63.6621L59.4064 59.4713L57.9405 53.4911L47.7514 55.9841ZM44.6127 44.296L34.4922 47.0536L34.5308 47.1951L34.5734 47.3354L44.6127 44.296ZM42.0447 36.8839L32.4785 41.1848L32.5205 41.2781L32.5643 41.3705L42.0447 36.8839ZM39.334 32.8929L31.9164 40.3038L32.3272 40.7143L32.7808 41.0769L39.334 32.8929ZM31.9154 32.6078L36.6068 41.982L36.7488 41.9112L36.8888 41.8359L31.9154 32.6078ZM29.062 34.3183L34.0854 43.5193L34.7502 43.1569L35.3562 42.7029L29.062 34.3183ZM23.2127 31.7526L32.5954 27.0654L32.3535 26.5818L32.0629 26.1256L23.2127 31.7526ZM22.214 28.3316L11.7548 27.5278L11.7238 27.9292V28.3316H22.214ZM23.926 25.1958L17.756 16.7196L17.5144 16.8952L17.2833 17.0841L23.926 25.1958ZM29.3474 22.2025L24.9297 12.6964L24.863 12.7272L24.7965 12.7593L29.3474 22.2025ZM44.898 22.2025L39.1811 30.99L39.4327 31.1535L39.6934 31.3023L44.898 22.2025ZM50.034 27.4764L41.0387 32.8688L41.1673 33.0826L41.3058 33.2901L50.034 27.4764ZM54.0287 35.8862L44.1056 39.2853L44.165 39.4584L44.2302 39.6293L54.0287 35.8862ZM57.5954 47.0042L47.4749 49.7619L52.0412 66.4907L64.7436 54.6751L57.5954 47.0042ZM82.4194 23.9129L75.2812 16.2326L75.2711 16.2421L82.4194 23.9129ZM93.69 21.4898L87.8711 30.2102L88.1328 30.3846L88.4042 30.5429L93.69 21.4898ZM95.5447 24.3406L85.0854 25.1444L85.0881 25.1778L85.0908 25.2109L95.5447 24.3406ZM93.262 28.1891L86.3215 20.3302L86.2177 20.4218L86.1163 20.5159L93.262 28.1891ZM60.4487 58.6923L53.303 51.0192L48.8121 55.1941L50.2514 61.1515L60.4487 58.6923ZM63.8727 72.376L53.7279 75.0434L53.7369 75.0769L53.7459 75.1105L63.8727 72.376ZM78.9954 83.9216L85.2182 92.3593L85.3587 92.2557L85.4955 92.1478L78.9954 83.9216ZM84.8447 78.0776L77.0041 71.1146L76.9192 71.2101L76.8367 71.3076L84.8447 78.0776ZM89.838 77.3649L83.6679 85.8411L83.9658 86.0574L84.2782 86.2526L89.838 77.3649ZM92.5487 80.3582L82.4282 83.1159L82.586 83.6942L82.8088 84.2507L92.5487 80.3582ZM92.406 83.0664L101.401 88.4588L101.491 88.3089L101.576 88.1563L92.406 83.0664ZM87.9834 88.4829L80.4027 81.2383L80.3186 81.3262L80.2366 81.4161L87.9834 88.4829ZM80.5647 94.327L85.7366 103.445L85.7844 103.418L85.8323 103.391L80.5647 94.327ZM71.1487 86.2693C68.9013 86.2693 68.3382 85.7323 68.3373 85.7317L54.8428 101.783C59.5975 105.772 65.4068 107.231 71.1487 107.231V86.2693ZM68.5201 85.8887C67.8745 85.321 66.6736 83.8409 65.4114 80.5028L45.7847 87.9106C47.7564 93.1248 50.5502 98.0114 54.66 101.626L68.5201 85.8887ZM65.4114 80.5028C63.9715 76.6951 62.4135 71.6631 60.7552 65.3118L40.4542 70.6029C42.2199 77.3651 43.9909 83.166 45.7847 87.9106L65.4114 80.5028ZM43.4368 60.3049L16.7582 85.2491L31.094 100.554L57.7727 75.6098L43.4368 60.3049ZM16.8108 85.2003C16.5625 85.4292 16.4001 85.5451 16.3306 85.5906C16.2631 85.6346 16.303 85.5994 16.4509 85.5426L23.9825 105.107C26.7418 104.047 29.0826 102.41 31.0413 100.603L16.8108 85.2003ZM16.4509 85.5426C16.581 85.4925 16.5028 85.5566 16.0794 85.5566V106.518C18.6995 106.518 21.3797 106.107 23.9825 105.107L16.4509 85.5426ZM16.0794 85.5566C15.9771 85.5566 16.4779 85.5369 17.2725 85.8897C18.159 86.2834 18.9972 86.9609 19.5877 87.8192L2.29902 99.6944C5.85593 104.864 11.3555 106.518 16.0794 106.518V85.5566ZM19.839 88.202C20.572 89.3735 21.0156 90.7784 21.0553 92.2442C21.0929 93.631 20.7606 94.6736 20.5141 95.2484C20.1027 96.2072 19.7639 96.272 20.6495 95.4505L6.37333 80.0899C4.59578 81.7391 2.49734 84.0369 1.23003 86.9912C-0.226919 90.3878 -0.645629 95.0061 2.04771 99.3116L19.839 88.202ZM20.6519 95.4482L54.8918 63.6621L40.6109 48.3061L6.37085 80.0922L20.6519 95.4482ZM57.9405 53.4911C56.7727 48.7268 55.6767 44.6347 54.652 41.2565L34.5734 47.3354C35.451 50.2289 36.4474 53.9288 37.5622 58.4771L57.9405 53.4911ZM54.7332 41.5382C53.8023 38.1276 52.7565 34.9945 51.5251 32.3973L32.5643 41.3705C33.045 42.3845 33.7111 44.1926 34.4922 47.0536L54.7332 41.5382ZM51.6109 32.583C50.495 30.1052 48.7534 26.9997 45.8873 24.7089L32.7808 41.0769C32.4896 40.8442 32.296 40.6434 32.1881 40.5218C32.0799 40.3998 32.0352 40.3319 32.0446 40.3457C32.0534 40.3585 32.1002 40.4296 32.1793 40.5746C32.2578 40.7189 32.3589 40.9192 32.4785 41.1848L51.6109 32.583ZM46.7517 25.4819C44.0609 22.7934 40.4435 21.1293 36.338 21.1293V42.0908C35.5611 42.0908 34.6827 41.9373 33.8107 41.564C32.951 41.1959 32.3245 40.7115 31.9164 40.3038L46.7517 25.4819ZM36.338 21.1293C33.2667 21.1293 30.0074 21.7306 26.942 23.3797L36.8888 41.8359C36.6074 41.9872 36.3802 42.0556 36.2589 42.0828C36.1454 42.1084 36.1587 42.0908 36.338 42.0908V21.1293ZM27.224 23.2336C25.697 23.9964 24.1692 24.8835 22.7679 25.9336L35.3562 42.7029C35.4766 42.6127 35.8511 42.3595 36.6068 41.982L27.224 23.2336ZM24.0387 25.1172C24.9151 24.6397 26.0944 24.2651 27.457 24.2651C28.7895 24.2651 29.8285 24.6225 30.4721 24.944L21.0893 43.6925C25.0458 45.6689 29.7815 45.8647 34.0854 43.5193L24.0387 25.1172ZM30.4721 24.944C30.855 25.1352 31.2889 25.427 31.7003 25.8383C32.112 26.2493 32.404 26.6828 32.5954 27.0654L13.83 36.4398C15.4157 39.6083 17.9179 42.1082 21.0893 43.6925L30.4721 24.944ZM32.0629 26.1256C32.2391 26.4023 32.4116 26.7581 32.5343 27.1788C32.6572 27.5997 32.7042 27.996 32.7042 28.3316H11.7238C11.7238 31.5664 12.629 34.6578 14.3625 37.3795L32.0629 26.1256ZM32.6734 29.1355C32.6119 29.9339 32.3765 30.8087 31.9227 31.64C31.479 32.4527 30.953 32.9933 30.5689 33.3075L17.2833 17.0841C14.2409 19.5712 12.0907 23.1648 11.7548 27.5278L32.6734 29.1355ZM30.0962 33.672C30.0901 33.6764 30.1675 33.6204 30.3595 33.502C30.5462 33.3869 30.8024 33.2368 31.1399 33.0505C31.8212 32.6744 32.73 32.2076 33.8982 31.6457L24.7965 12.7593C22.1702 14.0227 19.6245 15.3619 17.756 16.7196L30.0962 33.672ZM33.765 31.7085C34.9089 31.178 36.3286 30.8303 38.1927 30.8303V9.86871C33.5892 9.86871 29.112 10.7564 24.9297 12.6964L33.765 31.7085ZM38.1927 30.8303C38.6318 30.8303 38.8834 30.8824 38.9986 30.9143C39.1041 30.9434 39.1503 30.9701 39.1811 30.99L50.615 13.415C46.7938 10.9333 42.5145 9.86871 38.1927 9.86871V30.8303ZM39.6934 31.3023C39.839 31.3853 40.3474 31.7175 41.0387 32.8688L59.0294 22.084C56.8674 18.4839 53.9517 15.3001 50.1026 13.1027L39.6934 31.3023ZM41.3058 33.2901C42.2092 34.644 43.1789 36.585 44.1056 39.2853L63.9518 32.487C62.5958 28.5354 60.9025 24.87 58.7625 21.6627L41.3058 33.2901ZM44.2302 39.6293C45.317 42.4685 46.403 45.8352 47.4749 49.7619L67.7159 44.2465C66.5051 39.811 65.2134 35.7654 63.8272 32.1431L44.2302 39.6293ZM64.7436 54.6751L89.5676 31.5838L75.2711 16.2421L50.4472 39.3333L64.7436 54.6751ZM89.5575 31.5933C90.0227 31.1617 90.3881 30.8581 90.6571 30.6538C90.9322 30.445 91.0469 30.3852 91.0094 30.4058L80.9627 12.0036C78.8628 13.1481 76.9552 14.6798 75.2812 16.2326L89.5575 31.5933ZM91.0094 30.4058C90.7005 30.5741 90.3909 30.6875 90.1106 30.7546C89.8355 30.8206 89.6389 30.8303 89.5527 30.8303V9.86871C86.6755 9.86871 83.7239 10.499 80.9627 12.0036L91.0094 30.4058ZM89.5527 30.8303C89.5389 30.8303 89.3383 30.8284 89.0102 30.738C88.6692 30.6439 88.2695 30.4756 87.8711 30.2102L99.509 12.7694C96.355 10.6684 92.8628 9.86871 89.5527 9.86871V30.8303ZM88.4042 30.5429C87.7931 30.1865 86.9342 29.5197 86.2143 28.4132C85.479 27.2829 85.1596 26.1091 85.0854 25.1444L106.004 23.5367C105.625 18.6122 102.862 14.7018 98.9758 12.4367L88.4042 30.5429ZM85.0908 25.2109C84.9095 23.0384 85.6254 21.4812 86.0207 20.8148C86.3874 20.1967 86.6402 20.0493 86.3215 20.3302L100.203 36.048C102.25 34.2434 106.537 29.9201 105.999 23.4702L85.0908 25.2109ZM86.1163 20.5159L53.303 51.0192L67.5944 66.3655L100.408 35.8623L86.1163 20.5159ZM50.2514 61.1515C51.592 66.7009 52.7518 71.3376 53.7279 75.0434L74.0176 69.7087C73.0913 66.1926 71.9684 61.7066 70.646 56.2331L50.2514 61.1515ZM53.7459 75.1105C54.7708 78.899 55.9151 82.3382 57.2549 85.1494L76.1972 76.1372C75.6349 74.9572 74.8769 72.8848 73.9995 69.6416L53.7459 75.1105ZM57.2549 85.1494C58.5703 87.9094 60.6405 91.2293 64.0458 93.4975L75.6836 76.0562C75.999 76.2665 76.2222 76.4619 76.3623 76.5989C76.5016 76.735 76.5711 76.8253 76.5816 76.8389C76.5921 76.8528 76.5574 76.8088 76.4859 76.688C76.4148 76.5677 76.3168 76.3881 76.1972 76.1372L57.2549 85.1494ZM64.0458 93.4975C67.294 95.6609 70.8766 96.3979 74.1447 96.3979V75.4364C73.9888 75.4364 74.7181 75.4134 75.6836 76.0562L64.0458 93.4975ZM74.1447 96.3979C78.7663 96.3979 82.57 94.3087 85.2182 92.3593L72.7726 75.484C72.3742 75.7774 72.264 75.7965 72.4333 75.7269C72.614 75.6525 73.2163 75.4364 74.1447 75.4364V96.3979ZM85.4955 92.1478C88.0243 90.1533 90.475 87.6553 92.8527 84.8475L76.8367 71.3076C75.0297 73.4413 73.5808 74.8392 72.4952 75.6955L85.4955 92.1478ZM92.6853 85.0406C92.6572 85.0722 91.7013 86.1704 89.6717 86.6775L84.5831 66.3418C81.0315 67.2289 78.5542 69.3724 77.0041 71.1146L92.6853 85.0406ZM89.6717 86.6775C87.8136 87.1415 86.2271 86.894 85.2167 86.5752C84.2759 86.2784 83.7495 85.9004 83.6679 85.8411L96.0082 68.8887C94.044 67.4616 89.8513 65.0259 84.5831 66.3418L89.6717 86.6775ZM84.2782 86.2526C84.4719 86.3735 84.2514 86.2698 83.8781 85.8577C83.4862 85.4248 82.8115 84.5199 82.4282 83.1159L102.669 77.6005C101.357 72.7919 97.7833 69.9669 95.3979 68.4772L84.2782 86.2526ZM82.8088 84.2507C82.5092 83.5022 82.2566 82.4514 82.3227 81.1971C82.3896 79.9276 82.7635 78.8261 83.2359 77.9765L101.576 88.1563C103.664 84.4017 103.779 80.1878 102.289 76.4656L82.8088 84.2507ZM83.4107 77.674C83.1571 78.0966 82.3183 79.2376 80.4027 81.2383L95.564 95.7274C97.8335 93.3571 99.943 90.887 101.401 88.4588L83.4107 77.674ZM80.2366 81.4161C79.0583 82.7052 77.4588 84.0093 75.2972 85.2634L85.8323 103.391C89.5674 101.223 92.9138 98.6316 95.7302 95.5496L80.2366 81.4161ZM75.3928 85.2085C74.1875 85.891 72.8429 86.2693 71.1487 86.2693V107.231C76.3025 107.231 81.2352 105.994 85.7366 103.445L75.3928 85.2085Z" fill="white"/>
</g>
</g>
<defs>
<clipPath id="clip0_9_181">
<rect width="107" height="109" fill="white"/>
</clipPath>
</defs>
</svg>
